<?xml version="1.0" standalone="no"?><!DOCTYPE svg PUBLIC "-//W3C//DTD SVG 1.1//EN" "http://www.w3.org/Graphics/SVG/1.1/DTD/svg11.dtd"><svg t="1553996630693" class="icon" style="" viewBox="0 0 1027 1024" version="1.1" xmlns="http://www.w3.org/2000/svg" p-id="12444" xmlns:xlink="http://www.w3.org/1999/xlink" width="513.5" height="512"><defs><style type="text/css"></style></defs><path d="M367.292141 476.903961A23.341354 23.341354 0 1 0 390.73632 453.665432a23.341354 23.341354 0 0 0-23.341354 23.238529zM615.71818 476.903961a23.341354 23.341354 0 1 0 23.341354-23.238529 23.341354 23.341354 0 0 0-23.341354 23.238529zM638.03128 293.05224a46.065756 46.065756 0 0 0 6.992124 2.981935l2.981935 0.822603c-3.290411-1.439555-6.580822-2.673459-9.974059-3.804538zM646.154483 274.132376a30.230652 30.230652 0 0 0 5.244092 2.364983 13.470121 13.470121 0 0 0 2.776285 0.616952z" p-id="12445" fill="#ffffff"></path><path d="M942.497134 649.136418c48.533564 0 85.139388-16.040754 85.139387-37.325601s-36.605824-37.222776-85.139387-37.222776a172.232457 172.232457 0 0 0-49.561818 6.580822 363.796079 363.796079 0 0 0-8.226028-41.130139 181.589563 181.589563 0 0 0 23.032878 1.33673c48.533564 0 85.139388-16.040754 85.139388-37.222776S956.27573 466.827077 907.742166 466.827077a175.420043 175.420043 0 0 0-47.402485 5.96387 375.92947 375.92947 0 0 0-40.101885-66.939301 204.41679 204.41679 0 0 0 37.11995-9.768408A170.381601 170.381601 0 0 0 925.428126 353.102243c17.68596-19.331165 23.855481-39.690584 17.583134-57.170893-12.441867-34.138015-69.304284-43.700773-129.457112-21.696149a161.847097 161.847097 0 0 0-74.239901 51.412674 372.639059 372.639059 0 0 0-55.217211-33.829539C746.820498 257.063368 822.602779 130.279715 820.546272 77.11901S796.27949 8.226028 783.117845 3.290411a51.412674 51.412674 0 0 0-55.422862 16.040754 163.492302 163.492302 0 0 0-33.006936 64.677144v-0.514127a46.888358 46.888358 0 0 0-41.130139-19.845292 42.261218 42.261218 0 0 0-35.166269 21.593323 64.574318 64.574318 0 0 0-4.832791 45.75728 229.609001 229.609001 0 0 0 10.899486 36.194522c3.187586 8.226028 3.907363 10.282535 3.187586 12.544692-2.981935 7.711901-12.133391 42.055567-15.937929 56.451116a50.178769 50.178769 0 0 0 0 27.557193 383.641371 383.641371 0 0 0-194.134255-1.33673 47.402485 47.402485 0 0 0 2.262157-14.395548 54.497434 54.497434 0 0 0-2.159332-14.909676c-9.048631-31.567382-14.601199-50.178769-16.657706-55.525687-0.719777-1.850856 0-4.113014 2.776284-11.824915a236.498299 236.498299 0 0 0 10.282535-35.37192v-1.850856a47.094009 47.094009 0 0 0-29.40805-52.132451 48.430739 48.430739 0 0 0-51.412673 8.020377 171.307029 171.307029 0 0 0-34.03519-65.396921A51.412674 51.412674 0 0 0 243.798899 2.776284c-12.647518 4.935617-33.829539 20.565069-34.446492 71.977744s76.502058 178.710454 139.01987 212.334342a390.73632 390.73632 0 0 0-59.535876 34.857792c-15.218151-23.238528-49.870293-42.980995-93.26259-50.692896a171.71833 171.71833 0 0 0-79.998121 3.290411c-24.883734 7.917552-40.410362 22.415926-43.597947 41.130139-6.272346 35.783221 38.148204 72.594695 101.180142 83.802658a194.648382 194.648382 0 0 0 32.904111 2.981935 387.754385 387.754385 0 0 0-42.158392 68.790158 185.805403 185.805403 0 0 0-39.484934-4.010189C75.782281 466.827077 39.279283 483.279132 39.279283 503.844202s36.502998 37.222776 85.139387 37.222776h14.087073a352.073989 352.073989 0 0 0-7.814727 39.176457 177.887851 177.887851 0 0 0-45.551628-5.449743C36.605824 574.588041 0 590.52597 0 611.810817s36.605824 37.325601 85.139388 37.325601a180.664135 180.664135 0 0 0 41.130139-4.42149c0 12.955994 1.131079 25.706337 2.570633 38.251029-5.449743 0-11.105138-0.719777-16.966182-0.719777-48.533564 0-85.139388 16.040754-85.139388 37.325601s36.811474 37.222776 85.345039 37.222775a185.085625 185.085625 0 0 0 31.875857-2.673459 384.9781 384.9781 0 0 0 734.995583-0.822602 182.10369 182.10369 0 0 0 36.605824 3.496061c48.533564 0 85.139388-16.040754 85.139387-37.222775s-36.605824-37.325601-85.139387-37.325601a208.015678 208.015678 0 0 0-21.696149 1.131078 387.754385 387.754385 0 0 0 2.673459-39.690584 177.887851 177.887851 0 0 0 45.962931 5.449744z m0-64.265842c44.112074 0 74.856853 14.189898 74.856853 26.940241s-30.847604 27.043066-74.856853 27.043066a161.024494 161.024494 0 0 1-45.551629-5.96387 365.54411 365.54411 0 0 0-2.673459-41.130139 162.669699 162.669699 0 0 1 48.225088-6.889298zM907.742166 477.109612c44.112074 0 74.856853 14.292723 74.856853 27.043066s-30.847604 26.940241-74.856853 26.940241a182.309341 182.309341 0 0 1-25.911987-1.748031 381.276388 381.276388 0 0 0-17.069008-46.991184 163.183826 163.183826 0 0 1 42.980995-5.244092z m-87.607196-183.646071a164.520556 164.520556 0 0 1 55.217212-10.282534c25.295035 0 43.597947 7.917552 47.916612 20.050942 3.598887 10.282535-1.33673 22.930052-13.367295 36.194523a151.461737 151.461737 0 0 1-59.535877 37.531251 167.502491 167.502491 0 0 1-45.243152 10.282535 386.623306 386.623306 0 0 0-49.870294-48.944865 139.636822 139.636822 0 0 1 64.882794-44.831852z m-189.301464-52.029625c6.066695-22.621576 13.26447-48.84204 15.320977-54.497435a35.988872 35.988872 0 0 0-3.084761-27.043066 211.71739 211.71739 0 0 1-10.282535-33.315412 43.803598 43.803598 0 0 1 2.776285-31.361731 21.696148 21.696148 0 0 1 18.302912-11.105138h1.54238a26.73459 26.73459 0 0 1 21.901799 11.207963l27.968494 39.484933 4.21584-24.575258c0-0.514127 8.740155-51.412674 33.109761-76.913359a31.978683 31.978683 0 0 1 33.315413-10.796662c14.292723 5.449743 23.032878 25.603511 24.061131 55.320037 1.645206 46.579882-71.977743 167.913792-128.017557 196.602064a28.688272 28.688272 0 0 1-20.050943 3.187586 13.470121 13.470121 0 0 1-2.776284-0.616952 29.202399 29.202399 0 0 1-5.141268-2.364983 29.510875 29.510875 0 0 1-11.722089-12.339042 24.061131 24.061131 0 0 1-2.570634-11.310788 34.03519 34.03519 0 0 1 1.131079-9.562757z m-401.018855-166.782714c0-28.276971 8.226028-47.50531 21.387673-52.749403a21.696148 21.696148 0 0 1 7.711901-1.33673 36.194522 36.194522 0 0 1 25.39786 12.544693c18.508563 19.845292 28.585447 53.880482 31.875858 67.556253a14.395549 14.395549 0 0 0 26.117638 4.113014 27.351542 27.351542 0 0 1 34.03519-9.357107 26.52894 26.52894 0 0 1 16.966183 29.6137v1.33673a193.928605 193.928605 0 0 1-9.151456 32.287159 34.240841 34.240841 0 0 0-2.776285 26.426114c0 1.33673 1.645206 4.627141 4.113014 12.647518s6.169521 20.565069 12.030566 41.130139a27.557193 27.557193 0 0 1-0.822603 19.43399 26.426114 26.426114 0 0 1-15.423802 13.572946 28.688272 28.688272 0 0 1-22.518751-2.364983c-55.114386-29.202399-129.559938-149.302404-128.942986-194.854033z m-53.057879 304.157378C122.362163 369.142997 88.532624 339.323646 92.542813 318.758577c1.850856-10.282535 12.647518-19.331165 29.716525-24.780909a129.765588 129.765588 0 0 1 38.765156-5.449743 188.684512 188.684512 0 0 1 31.567382 2.879109c40.410362 7.197774 69.509935 25.500686 80.306596 42.87817A385.595052 385.595052 0 0 0 223.64513 380.453785a167.810967 167.810967 0 0 1-46.888358-1.645205zM126.475177 634.123917a173.26071 173.26071 0 0 1-41.130139 4.729966C41.130139 638.853883 10.282535 624.56116 10.282535 611.810817s30.847604-26.940241 74.856853-26.940241a165.857285 165.857285 0 0 1 44.112074 5.552568 359.888716 359.888716 0 0 0-2.776285 43.700773zM112.079629 746.512022c-44.112074 0-74.856853-14.189898-74.856853-26.940241s30.847604-27.043066 74.856853-27.043067c6.375172 0 12.544692 0 18.302911 0.822603a376.032295 376.032295 0 0 0 11.002313 50.898547 181.486738 181.486738 0 0 1-29.305224 2.262158z m29.305224-215.93323c-5.346918 0.514127-11.002312 0.719777-16.966183 0.719778-44.214899 0-74.959678-14.189898-74.959678-26.940241s30.847604-27.043066 74.959678-27.043067a171.821155 171.821155 0 0 1 35.063444 3.393237 359.888716 359.888716 0 0 0-18.097261 49.664643z m774.583341 161.949922c44.112074 0 74.856853 14.189898 74.856853 27.043067s-30.847604 26.940241-74.856853 26.940241a173.466361 173.466361 0 0 1-33.623889-3.084761 427.753445 427.753445 0 0 0 10.282535-49.561817 201.434855 201.434855 0 0 1 23.341354-1.33673zM876.586086 637.517153a363.796079 363.796079 0 0 1-3.393236 49.870294c0 3.701713-1.028253 7.3006-1.645206 11.002312a367.909093 367.909093 0 0 1-9.048631 39.896235c-0.925428 3.290411-1.953682 6.580822-2.981935 10.282535a364.413031 364.413031 0 0 1-695.099348 1.439554c-1.131079-3.187586-2.056507-6.477997-3.08476-10.282534a366.880839 366.880839 0 0 1-9.665583-42.672519c-0.616952-3.598887-1.131079-7.3006-1.54238-10.899487a351.559863 351.559863 0 0 1-3.290411-47.916612V637.517153v-10.282534a254.184259 254.184259 0 0 1 1.850856-28.174145q0-5.552569 1.233904-11.105138a356.289829 356.289829 0 0 1 10.282535-49.150516c1.028253-3.701713 2.159332-7.50625 3.290411-11.207963a328.012858 328.012858 0 0 1 15.629453-41.130139q1.953682-4.627141 4.318665-9.254281a366.880839 366.880839 0 0 1 50.075944-76.810534A375.312518 375.312518 0 0 1 267.345903 365.852586a26.837416 26.837416 0 0 0 3.08476-2.776285 333.256951 333.256951 0 0 1 26.631765-21.490497 362.870651 362.870651 0 0 1 339.323647-48.533564 102.825347 102.825347 0 0 1 10.282534 3.804538 358.346335 358.346335 0 0 1 83.288532 46.374231c5.96387 4.524315 11.72209 9.151456 17.377483 13.881422a359.888716 359.888716 0 0 1 30.127827 28.585447c6.786473 7.094949 13.26447 14.498374 19.331165 22.210275a360.402842 360.402842 0 0 1 45.448804 71.977743c1.439555 3.08476 2.87911 6.169521 4.215839 9.357107A310.429724 310.429724 0 0 1 858.694476 524.409271c1.33673 3.907363 2.467808 7.814726 3.598887 11.72209a354.850274 354.850274 0 0 1 11.105137 53.469181c0.616952 3.804538 1.028253 7.609076 1.33673 11.516439 0.822603 7.609076 1.33673 15.218151 1.645205 23.032877v12.030566z" p-id="12446" fill="#ffffff"></path></svg>